HIERARCHY
ROOT root
{
	OFFSET	0	13.1	24.9
	CHANNELS 6  Xposition Yposition Zposition Xrotation Yrotation Zrotation
	JOINT spine_1
	{
		OFFSET	0	9.99999	0
		CHANNELS 3  Xrotation Yrotation Zrotation
		JOINT spine_2
		{
			OFFSET	0	112	-10
			CHANNELS 3  Xrotation Yrotation Zrotation
			JOINT spine_3
			{
				OFFSET	0	206.5	19.3
				CHANNELS 3  Xrotation Yrotation Zrotation
				JOINT spine_4
				{
					OFFSET	0	110.4	14.6
					CHANNELS 3  Xrotation Yrotation Zrotation
					JOINT neck_1
					{
						OFFSET	0	71.8	-50.3
						CHANNELS 3  Xrotation Yrotation Zrotation
						JOINT neck_2
						{
							OFFSET	0	86.2	-25.8
							CHANNELS 3  Xrotation Yrotation Zrotation
							JOINT head_ee
							{
								OFFSET	0	179.8	-8.7
								CHANNELS 3  Xrotation Yrotation Zrotation
								End Site
								{
									OFFSET	1	0	0
								}
							}
						}
					}
					JOINT left_clavicle
					{
						OFFSET	-43.2	22.4	-70.8
						CHANNELS 3  Xrotation Yrotation Zrotation
						JOINT left_shoulder
						{
							OFFSET	-93.9	-5.79999	48.7
							CHANNELS 3  Xrotation Yrotation Zrotation
							JOINT left_elbow
							{
								OFFSET	-291.4	-30.8	15.2
								CHANNELS 3  Xrotation Yrotation Zrotation
								JOINT left_lowarm_twist
								{
									OFFSET	-110.7	-3.89999	13.6
									CHANNELS 3  Xrotation Yrotation Zrotation
									JOINT left_hand
									{
										OFFSET	-110.7	-3.89999	13.6
										CHANNELS 3  Xrotation Yrotation Zrotation
										JOINT left_ee
										{
											OFFSET	-80.8	-5.10001	12.1
											CHANNELS 3  Xrotation Yrotation Zrotation
											End Site
											{
												OFFSET	1	0	0
											}
										}
									}
								}
							}
						}
					}
					JOINT right_clavicle
					{
						OFFSET	43.2	22.4	-70.8
						CHANNELS 3  Xrotation Yrotation Zrotation
						JOINT right_shoulder
						{
							OFFSET	93.9	-5.79999	48.7
							CHANNELS 3  Xrotation Yrotation Zrotation
							JOINT right_elbow
							{
								OFFSET	291.4	-30.8	15.2
								CHANNELS 3  Xrotation Yrotation Zrotation
								JOINT right_lowarm_twist
								{
									OFFSET	110.7	-3.89999	13.6
									CHANNELS 3  Xrotation Yrotation Zrotation
									JOINT right_hand
									{
										OFFSET	110.7	-3.89999	13.6
										CHANNELS 3  Xrotation Yrotation Zrotation
										JOINT right_ee
										{
											OFFSET	80.8	-5.10001	12.1
											CHANNELS 3  Xrotation Yrotation Zrotation
											End Site
											{
												OFFSET	1	0	0
											}
										}
									}
								}
							}
						}
					}
				}
			}
		}
	}
	JOINT left_hip
	{
		OFFSET	-82.8	-127.5	0.300001
		CHANNELS 3  Xrotation Yrotation Zrotation
		JOINT left_knee
		{
			OFFSET	-28.2	-396.7	2.2
			CHANNELS 3  Xrotation Yrotation Zrotation
			JOINT left_ankle
			{
				OFFSET	-11.7	-411.3	35.4
				CHANNELS 3  Xrotation Yrotation Zrotation
				JOINT left_toes
				{
					OFFSET	0	-60	-88.6
					CHANNELS 3  Xrotation Yrotation Zrotation
					JOINT left_foot_ee
					{
						OFFSET	-22.5	-16.5	-42.2
						CHANNELS 3  Xrotation Yrotation Zrotation
						End Site
						{
							OFFSET	1	0	0
						}
					}
				}
			}
		}
	}
	JOINT right_hip
	{
		OFFSET	82.8	-127.5	0.300001
		CHANNELS 3  Xrotation Yrotation Zrotation
		JOINT right_knee
		{
			OFFSET	28.2	-396.7	2.2
			CHANNELS 3  Xrotation Yrotation Zrotation
			JOINT right_ankle
			{
				OFFSET	11.7	-411.3	35.4
				CHANNELS 3  Xrotation Yrotation Zrotation
				JOINT right_toes
				{
					OFFSET	0	-60	-88.6
					CHANNELS 3  Xrotation Yrotation Zrotation
					JOINT right_foot_ee
					{
						OFFSET	22.5	-16.5	-42.2
						CHANNELS 3  Xrotation Yrotation Zrotation
						End Site
						{
							OFFSET	1	0	0
						}
					}
				}
			}
		}
	}
}
MOTION
Frames: 8
Frame Time: 0.02
3349.31 712.487 -759.351 -23.743 51.785 9.04202 6.37031 0.59873 3.7389 6.37801 0.359774 3.76936 6.39203 -0.0188276 3.78642 6.37249 0.578977 3.742 1.0567 8.46467 -1.59561 1.30602 16.3006 -0.979869 -0.0 0.0 -0.0 -2.75968 15.3735 -2.59654 -17.1286 -46.5078 70.766 0.614334 -16.9263 0.0914099 -30.9137 -2.04067 3.33471 1.91038 -6.05423 10.3763 -0.0 0.0 -0.0 12.2232 21.6327 -24.3214 -20.1187 -11.0294 -70.493 1.0636 27.783 -0.263054 -50.2405 4.1 -4.69542 3.71019 22.3272 -15.0133 0.0 0.0 0.0 20.177 2.09289 16.787 -14.2307 0.319742 2.15488 31.9477 24.0256 -4.30438 12.3632 -0.0 -0.0 -0.0 0.0 -0.0 35.9601 9.97457 17.9397 -32.6809 0.0679205 -4.94756 15.056 -26.3094 2.21776 1.47539 -0.0 -0.0 0.0 0.0 0.0 
3340.91 711.106 -762.27 -22.1319 51.5371 7.748 6.12813 0.498527 3.75748 6.13594 0.258594 3.78154 6.14382 -0.137376 3.78787 6.1241 0.462139 3.76212 1.45376 8.21654 -0.923396 1.67044 15.2673 -0.308267 -0.0 0.0 -0.0 -2.83641 13.73 -3.02919 -16.0296 -47.2636 70.8159 0.590655 -16.3093 0.0846382 -30.3835 -1.99124 3.28802 1.97619 -6.46734 10.6524 -0.0 0.0 -0.0 12.4896 22.9082 -24.8232 -20.761 -10.9246 -70.7304 0.957742 25.381 -0.215674 -50.5731 4.1391 -4.71254 4.32624 25.9831 -17.1018 0.0 0.0 0.0 19.5833 0.276942 17.3316 -15.2606 0.321973 2.31287 32.492 24.5457 -4.37775 13.0783 -0.0 -0.0 -0.0 0.0 -0.0 36.4583 9.44936 17.2557 -34.9544 0.177353 -5.27917 16.7825 -25.4317 2.44396 2.49063 -0.0 -0.0 0.0 0.0 0.0 
3336.65 710.729 -764.934 -21.7562 51.7108 7.45411 6.05554 0.549615 3.85989 6.06378 0.303076 3.88698 6.0748 -0.108755 3.89725 6.05396 0.507639 3.86562 2.05921 8.61127 -0.877168 2.30758 15.8639 -0.295831 -0.0 0.0 -0.0 -3.01833 12.3587 -3.59202 -15.261 -48.0331 69.4579 0.639699 -17.5829 0.0989338 -30.2202 -1.97611 3.27356 1.89072 -6.77852 9.93373 -0.0 0.0 -0.0 12.776 23.7792 -25.401 -20.9842 -11.2699 -71.1353 0.877157 23.4856 -0.182337 -50.7278 4.15731 -4.72042 4.64874 27.8569 -18.1251 0.0 0.0 0.0 19.7428 0.242184 17.359 -17.4478 0.317289 2.64839 33.5772 24.2085 -4.48782 13.6117 -0.0 -0.0 -0.0 0.0 -0.0 38.6029 9.06621 15.7227 -35.0598 0.182748 -5.29445 19.4458 -24.1196 2.78221 3.42546 -0.0 -0.0 0.0 0.0 0.0 
3334.66 709.712 -768.541 -21.2733 51.9768 7.47229 5.84123 0.606819 3.79162 5.84915 0.364499 3.82249 5.86473 -0.0548209 3.83941 5.84458 0.551786 3.80001 0.61067 9.87362 -0.129016 0.859964 17.6412 0.800198 -0.0 0.0 -0.0 -2.90576 13.623 -3.16377 -13.903 -47.3134 68.3699 0.659315 -18.0874 0.104942 -30.6504 -2.01607 3.31158 1.49889 -6.22172 7.49524 -0.0 0.0 -0.0 13.2333 25.2078 -26.3087 -21.6878 -12.789 -72.0049 0.771291 20.9106 -0.14233 -50.7565 4.1607 -4.72188 4.86291 28.1379 -19.3717 0.0 0.0 0.0 18.243 1.47373 17.5692 -16.6716 0.320417 2.52934 35.7638 23.7094 -4.70639 13.4717 -0.0 -0.0 -0.0 0.0 -0.0 39.669 9.57793 14.3391 -35.2211 0.191053 -5.31779 17.3107 -22.5514 2.4784 3.02664 -0.0 -0.0 0.0 0.0 0.0 
3331.64 712.1 -769.638 -22.0853 52.119 8.57411 5.56669 0.465205 3.843 5.57488 0.219909 3.86478 5.58139 -0.22264 3.86462 5.56076 0.390035 3.85135 3.15657 9.10819 -0.513637 3.44094 16.3051 0.0189491 -0.0 0.0 -0.0 -2.70318 14.6708 -2.63607 -12.5579 -49.1407 66.2571 0.686214 -18.7745 0.113447 -31.6158 -2.10678 3.39583 1.51735 -5.33051 7.99641 -0.0 0.0 -0.0 13.4478 24.7882 -26.8546 -21.849 -12.0171 -71.7074 0.688761 18.8393 -0.114267 -51.8349 4.28831 -4.77541 4.92254 27.897 -19.9203 0.0 0.0 0.0 18.1358 3.30303 17.1108 -17.3237 0.317897 2.62937 35.3413 22.925 -4.64215 13.0791 -0.0 -0.0 -0.0 0.0 -0.0 42.8254 7.15048 13.5012 -31.4686 0.0149827 -4.76908 17.758 -18.3602 2.49511 2.8771 -0.0 -0.0 0.0 0.0 0.0 
3329.09 711.031 -769.224 -22.3234 52.6828 9.4747 5.36051 0.453572 3.87653 5.36885 0.20617 3.8975 5.37488 -0.254122 3.89467 5.3539 0.363681 3.88598 2.38144 9.2998 -0.353278 2.65259 16.5975 0.296936 -0.0 0.0 -0.0 -2.39338 12.6546 -2.4891 -11.639 -49.5258 65.578 0.691214 -18.9016 0.115061 -31.3948 -2.0859 3.37668 1.40328 -6.29333 6.81486 -0.0 0.0 -0.0 13.0966 24.976 -26.0175 -22.4345 -12.3977 -72.4384 0.770568 20.8926 -0.142072 -50.3254 4.10998 -4.69982 4.93426 28.038 -19.9096 0.0 0.0 0.0 18.4335 2.68286 17.0717 -17.9908 0.314142 2.73165 37.6291 23.5234 -4.89108 14.1666 -0.0 -0.0 -0.0 0.0 -0.0 43.0623 9.82869 11.8165 -30.0217 -0.0432328 -4.55468 18.3207 -14.8481 2.54256 2.14044 -0.0 -0.0 0.0 0.0 0.0 
3325.1 710.722 -773.355 -22.6636 52.8416 9.65503 5.36806 0.49704 3.90489 5.3765 0.247751 3.92856 5.38535 -0.215679 3.93045 5.36403 0.407282 3.91526 2.31965 8.83972 0.315219 2.53686 15.2334 1.01637 -0.0 0.0 -0.0 -2.04895 11.4782 -2.10976 -11.0101 -49.481 64.0974 0.729982 -19.8806 0.127933 -30.8618 -2.03581 3.33016 1.53618 -7.15738 7.35211 -0.0 0.0 -0.0 13.5433 24.6115 -27.0967 -23.294 -12.6561 -72.2133 0.671228 18.3924 -0.108671 -51.6368 4.26479 -4.76576 4.881 26.7677 -20.3483 0.0 0.0 0.0 19.9393 -2.51674 17.951 -18.5932 0.309727 2.82397 36.4298 24.411 -4.79462 14.4377 -0.0 -0.0 -0.0 0.0 -0.0 43.2691 9.62155 10.6031 -27.8565 -0.120179 -4.23131 19.832 -15.9747 2.74231 3.10753 -0.0 -0.0 0.0 0.0 0.0 
3323.61 714.13 -768.652 -24.18 52.3622 11.2032 5.26008 0.54034 3.71491 5.26771 0.303025 3.74171 5.28036 -0.145556 3.75113 5.261 0.448271 3.72712 5.81595 8.86275 -0.403362 6.12923 15.46 -0.136017 -0.0 0.0 -0.0 -0.0731197 11.0535 1.18341 -12.9057 -48.4217 58.7536 0.831771 -22.3932 0.164647 -31.931 -2.13672 3.42301 0.611224 -3.98422 2.42829 -0.0 0.0 -0.0 13.104 25.4214 -25.9847 -22.7014 -12.2793 -72.8505 0.645927 17.7434 -0.100824 -52.3415 4.34859 -4.79972 5.08499 25.6609 -22.4289 0.0 0.0 0.0 19.2842 -3.00818 18.21 -14.5259 0.320672 2.20015 38.9043 26.0925 -5.09719 12.2054 -0.0 -0.0 -0.0 0.0 -0.0 44.8726 9.8447 10.2554 -25.515 -0.189563 -3.87867 10.9204 -7.96084 1.54723 1.46145 -0.0 -0.0 0.0 0.0 0.0 
